<svg xmlns="http://www.w3.org/2000/svg" viewBox="0 0 96 96" width="96" height="96"><rect width="96" height="96" rx="48" fill="#CFFAFE"/><path d="M14 96C14 70 32 62 48 62S82 70 82 96Z" fill="#2563EB"/><rect x="42" y="50" width="12" height="16" rx="5" fill="#D9A27A"/><circle cx="48" cy="38" r="19" fill="#D9A27A"/><path d="M28 40C26 20 38 14 48 14S70 20 68 40C66 30 60 26 48 26S30 30 28 40ZM28 40C26 56 30 62 34 64L34 40ZM68 40C70 56 66 62 62 64L62 40Z" fill="#5B3A1E"/><circle cx="42" cy="40" r="2" fill="#0F172A"/><circle cx="54" cy="40" r="2" fill="#0F172A"/><path d="M43 47Q48 51 53 47" fill="none" stroke="#0F172A" stroke-width="2" stroke-linecap="round"/></svg>