<svg xmlns="http://www.w3.org/2000/svg" viewBox="0 0 800 600" width="800" height="600" font-family="Inter,'Segoe UI',Helvetica,Arial,sans-serif"><defs>
<linearGradient id="bg" x1="0" y1="0" x2="1" y2="1"><stop offset="0" stop-color="#EAF2FF"/><stop offset="1" stop-color="#D9F4F9"/></linearGradient>
<linearGradient id="gb" x1="0" y1="0" x2="0" y2="1"><stop offset="0" stop-color="#06B6D4"/><stop offset="1" stop-color="#2563EB"/></linearGradient>
<linearGradient id="gh" x1="0" y1="0" x2="1" y2="0"><stop offset="0" stop-color="#2563EB"/><stop offset="1" stop-color="#06B6D4"/></linearGradient>
<linearGradient id="ar" x1="0" y1="0" x2="0" y2="1"><stop offset="0" stop-color="#2563EB" stop-opacity=".35"/><stop offset="1" stop-color="#2563EB" stop-opacity="0"/></linearGradient>
<linearGradient id="em" x1="0" y1="0" x2="0" y2="1"><stop offset="0" stop-color="#FDBA74"/><stop offset="1" stop-color="#F97316"/></linearGradient>
<filter id="sh" x="-20%" y="-20%" width="140%" height="150%"><feDropShadow dx="0" dy="18" stdDeviation="16" flood-color="#0F172A" flood-opacity=".18"/></filter>
</defs><defs><linearGradient id="cg" x1="0" y1="0" x2="1" y2="1"><stop offset="0" stop-color="#0F172A"/><stop offset="1" stop-color="#06B6D4"/></linearGradient><pattern id="dots" width="28" height="28" patternUnits="userSpaceOnUse"><circle cx="3" cy="3" r="2.4" fill="#fff" opacity=".22"/></pattern></defs><rect width="800" height="600" rx="32" fill="url(#cg)"/><rect width="800" height="600" rx="32" fill="url(#dots)"/><circle cx="700" cy="90" r="150" fill="#fff" opacity=".09"/><circle cx="90" cy="520" r="170" fill="#fff" opacity=".08"/><g filter="url(#sh)"><rect x="210" y="130" width="380" height="340" rx="48" fill="#fff"/></g><g transform="translate(400 300)"><path d="M-52 -58L-110 0L-52 58M52 -58L110 0L52 58" fill="none" stroke="#2563EB" stroke-width="18" stroke-linecap="round" stroke-linejoin="round"/><path d="M20 -84L-20 84" stroke="#06B6D4" stroke-width="16" stroke-linecap="round"/></g><circle cx="610" cy="140" r="16" fill="#06B6D4"/><g transform="translate(86 420) rotate(-10) scale(1.0)"><path d="M24 2C24 2 4 24 4 40a20 20 0 0040 0C44 24 24 2 24 2z" fill="url(#em)"/><ellipse cx="17" cy="30" rx="4" ry="7" fill="#fff" opacity=".45" transform="rotate(20 17 30)"/></g></svg>