<svg xmlns="http://www.w3.org/2000/svg" viewBox="0 0 800 600" width="800" height="600" font-family="Inter,'Segoe UI',Helvetica,Arial,sans-serif"><defs>
<linearGradient id="bg" x1="0" y1="0" x2="1" y2="1"><stop offset="0" stop-color="#EAF2FF"/><stop offset="1" stop-color="#D9F4F9"/></linearGradient>
<linearGradient id="gb" x1="0" y1="0" x2="0" y2="1"><stop offset="0" stop-color="#06B6D4"/><stop offset="1" stop-color="#2563EB"/></linearGradient>
<linearGradient id="gh" x1="0" y1="0" x2="1" y2="0"><stop offset="0" stop-color="#2563EB"/><stop offset="1" stop-color="#06B6D4"/></linearGradient>
<linearGradient id="ar" x1="0" y1="0" x2="0" y2="1"><stop offset="0" stop-color="#2563EB" stop-opacity=".35"/><stop offset="1" stop-color="#2563EB" stop-opacity="0"/></linearGradient>
<linearGradient id="em" x1="0" y1="0" x2="0" y2="1"><stop offset="0" stop-color="#FDBA74"/><stop offset="1" stop-color="#F97316"/></linearGradient>
<filter id="sh" x="-20%" y="-20%" width="140%" height="150%"><feDropShadow dx="0" dy="18" stdDeviation="16" flood-color="#0F172A" flood-opacity=".18"/></filter>
</defs><rect width="800" height="600" rx="40" fill="url(#bg)"/><circle cx="710" cy="80" r="130" fill="#2563EB" opacity=".07"/><circle cx="80" cy="540" r="150" fill="#06B6D4" opacity=".13"/><g transform="translate(70 80)" filter="url(#sh)"><rect width="520" height="370" rx="28" fill="#fff"/></g><g transform="translate(70 80)"><path d="M0 28Q0 0 28 0H492Q520 0 520 28V56H0Z" fill="#F1F5F9"/><circle cx="34" cy="28" r="7" fill="#F97316"/><circle cx="58" cy="28" r="7" fill="#06B6D4"/><circle cx="82" cy="28" r="7" fill="#2563EB"/><rect x="120" y="14" width="300" height="28" rx="14" fill="#fff"/><rect x="136" y="25" width="120" height="7" rx="3.5" fill="#CBD5E1"/><g transform="translate(36 96)"><line x1="0" y1="30" x2="310" y2="30" stroke="#E2E8F0" stroke-width="2"/><line x1="0" y1="86" x2="310" y2="86" stroke="#E2E8F0" stroke-width="2"/><line x1="0" y1="142" x2="310" y2="142" stroke="#E2E8F0" stroke-width="2"/><line x1="0" y1="198" x2="310" y2="198" stroke="#E2E8F0" stroke-width="2"/><path d="M0 190 L52 168 L104 176 L156 122 L208 106 L260 52 L310 20 L310 198 L0 198Z" fill="url(#ar)"/><path d="M0 190 L52 168 L104 176 L156 122 L208 106 L260 52 L310 20" fill="none" stroke="url(#gh)" stroke-width="7" stroke-linecap="round" stroke-linejoin="round"/><circle cx="310" cy="20" r="11" fill="#06B6D4" stroke="#fff" stroke-width="5"/></g><rect x="372" y="96" width="124" height="92" rx="18" fill="#EAF2FF"/><text x="392" y="154" font-size="50" font-weight="800" fill="#2563EB" letter-spacing="-2">#1</text><text x="392" y="176" font-size="13" font-weight="600" fill="#64748B">Google rank</text><rect x="372" y="204" width="124" height="92" rx="18" fill="#0F172A"/><text x="390" y="250" font-size="30" font-weight="800" fill="#fff" letter-spacing="-1">+312%</text><text x="390" y="274" font-size="13" font-weight="600" fill="#06B6D4">more calls</text></g><g transform="translate(400 370)" filter="url(#sh)"><rect width="320" height="180" rx="26" fill="#fff"/></g><g transform="translate(400 370)"><text x="26" y="42" font-size="15" font-weight="700" fill="#64748B">Leads per month</text><text x="26" y="78" font-size="30" font-weight="800" fill="#0F172A" letter-spacing="-1">1,240</text><rect x="130" y="126" width="28" height="34" rx="8" fill="url(#gb)" opacity=".55"/><rect x="178" y="108" width="28" height="52" rx="8" fill="url(#gb)" opacity=".55"/><rect x="206" y="116" width="28" height="44" rx="8" fill="url(#gb)" opacity=".55"/><rect x="234" y="84" width="28" height="76" rx="8" fill="url(#gb)" opacity=".55"/><rect x="262" y="68" width="28" height="92" rx="8" fill="url(#gb)" opacity="1"/><rect x="290" y="48" width="28" height="112" rx="8" fill="url(#gb)" opacity="1"/></g><g transform="translate(640 40) rotate(12) scale(1.3)"><path d="M24 2C24 2 4 24 4 40a20 20 0 0040 0C44 24 24 2 24 2z" fill="url(#em)"/><ellipse cx="17" cy="30" rx="4" ry="7" fill="#fff" opacity=".45" transform="rotate(20 17 30)"/></g><circle cx="96" cy="500" r="26" fill="none" stroke="#2563EB" stroke-width="8"/><path d="M752 250v34M735 267h34" stroke="#06B6D4" stroke-width="9" stroke-linecap="round"/></svg>